<svg xmlns:xlink="http://www.w3.org/1999/xlink" width="64" xmlns="http://www.w3.org/2000/svg" height="64" id="screenshot-dc116e37-303a-805d-8002-a2c65e911193" viewBox="0 0 64 64" style="-webkit-print-color-adjust: exact;" fill="none" version="1.1"><g id="shape-dc116e37-303a-805d-8002-a2c65e911193" rx="0" ry="0"><g id="shape-dc116e37-303a-805d-8002-a2c65e911194"><g class="fills" id="fills-dc116e37-303a-805d-8002-a2c65e911194"><rect rx="0" ry="0" x="0" y="0" transform="matrix(1.000000, 0.000000, 0.000000, 1.000000, 0.000000, 0.000000)" width="64" height="64"/></g></g><g id="shape-dc116e37-303a-805d-8002-a2c65e911195"><g class="fills" id="fills-dc116e37-303a-805d-8002-a2c65e911195"><ellipse class="cls-4" rx="13.24137931034469" ry="14.896551724137964" cx="29.610213811570638" cy="33.15502598825395" transform="matrix(0.774393, -0.632704, 0.632706, 0.774392, -14.297135, 26.214555)" style="fill: rgb(0, 0, 0); fill-opacity: 1;"/></g></g><g id="shape-dc116e37-303a-805d-8002-a2c65e911196"><g class="fills" id="fills-dc116e37-303a-805d-8002-a2c65e911196"><path class="cls-5" rx="0" ry="0" d="M45.404,25.195C47.118,27.690,47.994,31.113,47.994,31.113C48.277,32.212,48.971,32.302,49.545,31.314C50.170,30.143,50.565,28.867,50.708,27.554C50.991,24.628,50.072,21.712,48.153,19.448C46.233,17.184,43.472,15.757,40.475,15.482C37.761,15.232,34.981,16.470,34.981,16.470C33.926,16.943,33.953,17.655,35.039,18.053C35.031,18.057,42.333,20.730,45.404,25.195ZZ" style="fill: rgb(0, 0, 0); fill-opacity: 1;"/></g></g><g id="shape-dc116e37-303a-805d-8002-a2c65e917ae4"><g class="fills" id="fills-dc116e37-303a-805d-8002-a2c65e917ae4"><path class="cls-3" rx="0" ry="0" d="M32.000,4.414C47.225,4.414,59.586,16.775,59.586,32.000C59.586,47.225,47.225,59.586,32.000,59.586C16.775,59.586,4.414,47.225,4.414,32.000C4.414,16.775,16.775,4.414,32.000,4.414Z"/></g><g id="strokes-dc116e37-303a-805d-8002-a2c65e917ae4" class="strokes"><g class="stroke-shape"><path class="cls-3" rx="0" ry="0" d="M32.000,4.414C47.225,4.414,59.586,16.775,59.586,32.000C59.586,47.225,47.225,59.586,32.000,59.586C16.775,59.586,4.414,47.225,4.414,32.000C4.414,16.775,16.775,4.414,32.000,4.414Z" style="fill: none; stroke-width: 8; stroke: rgb(0, 0, 0); stroke-opacity: 1;"/></g></g></g></g></svg>