<svg xmlns="http://www.w3.org/2000/svg" width="65" height="65" style="-webkit-print-color-adjust:exact" fill="none"><symbol id="session-icon" viewBox="0 0 65 65"><g style="fill:#000"><path d="M30.469 35.344V7.854h4.062v27.49h-4.062ZM32.5 57.01c-3.34 0-6.489-.643-9.445-1.929-2.957-1.287-5.541-3.036-7.753-5.248-2.212-2.211-3.961-4.796-5.247-7.752-1.287-2.957-1.93-6.105-1.93-9.446 0-3.611.767-6.985 2.302-10.122 1.535-3.137 3.701-5.924 6.5-8.362l2.844 2.844c-2.393 1.941-4.255 4.254-5.586 6.94-1.332 2.686-1.997 5.585-1.997 8.699 0 5.643 1.974 10.44 5.924 14.389 3.95 3.95 8.746 5.925 14.388 5.925 5.658 0 10.459-1.975 14.4-5.925 3.942-3.949 5.913-8.746 5.913-14.389 0-3.114-.666-6.036-1.998-8.767-1.331-2.731-3.148-5.022-5.45-6.872l2.911-2.844a24.382 24.382 0 0 1 6.331 8.26c1.512 3.205 2.268 6.613 2.268 10.224 0 3.341-.643 6.489-1.93 9.446-1.286 2.956-3.024 5.541-5.213 7.752-2.189 2.212-4.762 3.961-7.719 5.248-2.957 1.286-6.128 1.929-9.513 1.929Z" style="fill:#fff;fill-opacity:1" class="fills"/></g></symbol><use href="#session-icon"/></svg>